<?xml version="1.0" encoding="UTF-8"?>
<svg width="1280" height="720" viewBox="0 0 1280 720" xmlns="http://www.w3.org/2000/svg">
  <rect width="1280" height="720" fill="#0F2318"/>
  <rect x="0" y="0" width="6" height="720" fill="#C9A84C"/><g opacity="0.05">
    <defs><pattern id="grid-03 / 10" width="48" height="48" patternUnits="userSpaceOnUse">
      <path d="M 48 0 L 0 0 0 48" fill="none" stroke="#2A6A3E" stroke-width="1"/>
    </pattern></defs>
    <rect width="1280" height="720" fill="url(#grid-03 / 10)"/>
  </g><text x="64" y="62" font-family="system-ui" font-size="11" letter-spacing="3" fill="#C9A84C">PROOF</text><text x="64" y="112" font-family="Georgia, serif" font-size="30" font-weight="700" fill="#F5F0E8">The world already documents this pain.</text><rect x="64" y="176" width="580" height="44" fill="#1A4A2E" stroke="#2A6A3E" stroke-width="0.5"/><text x="76" y="204" font-family="system-ui" font-size="12" font-weight="600" fill="#F5F0E8">Evidence</text><rect x="644" y="176" width="580" height="44" fill="#1A4A2E" stroke="#2A6A3E" stroke-width="0.5"/><text x="656" y="204" font-family="system-ui" font-size="12" font-weight="600" fill="#F5F0E8">Source</text><rect x="64" y="220" width="580" height="44" fill="#0F2318" stroke="#2A6A3E" stroke-width="0.5"/><text x="76" y="248" font-family="system-ui" font-size="11" font-weight="500" fill="#F5F0E8">US→MX corridor</text><rect x="644" y="220" width="580" height="44" fill="#0F2318" stroke="#2A6A3E" stroke-width="0.5"/><text x="656" y="248" font-family="system-ui" font-size="11" font-weight="400" fill="#7AAE8A">~$60B+/year — World Bank</text><rect x="64" y="264" width="580" height="44" fill="#0F2318" stroke="#2A6A3E" stroke-width="0.5"/><text x="76" y="292" font-family="system-ui" font-size="11" font-weight="500" fill="#F5F0E8">Avg fee LATAM</text><rect x="644" y="264" width="580" height="44" fill="#0F2318" stroke="#2A6A3E" stroke-width="0.5"/><text x="656" y="292" font-family="system-ui" font-size="11" font-weight="400" fill="#7AAE8A">~6% — Remittance Prices</text><rect x="64" y="308" width="580" height="44" fill="#0F2318" stroke="#2A6A3E" stroke-width="0.5"/><text x="76" y="336" font-family="system-ui" font-size="11" font-weight="500" fill="#F5F0E8">Underbanked MX</text><rect x="644" y="308" width="580" height="44" fill="#0F2318" stroke="#2A6A3E" stroke-width="0.5"/><text x="656" y="336" font-family="system-ui" font-size="11" font-weight="400" fill="#7AAE8A">~40% (validate Laura)</text><rect x="64" y="352" width="580" height="44" fill="#0F2318" stroke="#2A6A3E" stroke-width="0.5"/><text x="76" y="380" font-family="system-ui" font-size="11" font-weight="500" fill="#F5F0E8">Customer story</text><rect x="644" y="352" width="580" height="44" fill="#0F2318" stroke="#2A6A3E" stroke-width="0.5"/><text x="656" y="380" font-family="system-ui" font-size="11" font-weight="400" fill="#7AAE8A">$500/2wk — $35 lost, 3 days wait</text><text x="64" y="672" font-family="system-ui" font-size="11" font-style="italic" fill="#7AAE8A">Fee compare: WU ~7% vs TIA 2.25% all-in on $200</text><text x="1232" y="692" font-family="system-ui" font-size="11" fill="#7AAE8A" text-anchor="end">03 / 10</text>
</svg>