<?xml version="1.0" encoding="UTF-8"?>
<svg width="1280" height="720" viewBox="0 0 1280 720" xmlns="http://www.w3.org/2000/svg">
  <rect width="1280" height="720" fill="#0F2318"/>
  <rect x="0" y="0" width="6" height="720" fill="#C9A84C"/><g opacity="0.05">
    <defs><pattern id="grid-04 / 10" width="48" height="48" patternUnits="userSpaceOnUse">
      <path d="M 48 0 L 0 0 0 48" fill="none" stroke="#2A6A3E" stroke-width="1"/>
    </pattern></defs>
    <rect width="1280" height="720" fill="url(#grid-04 / 10)"/>
  </g><text x="64" y="62" font-family="system-ui" font-size="11" letter-spacing="3" fill="#C9A84C">SOLUTION</text><text x="64" y="112" font-family="Georgia, serif" font-size="30" font-weight="700" fill="#F5F0E8">On-chain settlement → physical</text><text x="64" y="148" font-family="Georgia, serif" font-size="30" font-weight="700" fill="#F5F0E8">cash-out via WhatsApp.</text><rect x="64" y="212" width="580" height="44" fill="#1A4A2E" stroke="#2A6A3E" stroke-width="0.5"/><text x="76" y="240" font-family="system-ui" font-size="12" font-weight="600" fill="#F5F0E8">Outcome</text><rect x="644" y="212" width="580" height="44" fill="#1A4A2E" stroke="#2A6A3E" stroke-width="0.5"/><text x="656" y="240" font-family="system-ui" font-size="12" font-weight="600" fill="#F5F0E8">Mechanism</text><rect x="64" y="256" width="580" height="44" fill="#0F2318" stroke="#2A6A3E" stroke-width="0.5"/><text x="76" y="284" font-family="system-ui" font-size="11" font-weight="500" fill="#F5F0E8">Instant send + notify</text><rect x="644" y="256" width="580" height="44" fill="#0F2318" stroke="#2A6A3E" stroke-width="0.5"/><text x="656" y="284" font-family="system-ui" font-size="11" font-weight="400" fill="#7AAE8A">USDC escrow → TIA agent → WhatsApp</text><rect x="64" y="300" width="580" height="44" fill="#0F2318" stroke="#2A6A3E" stroke-width="0.5"/><text x="76" y="328" font-family="system-ui" font-size="11" font-weight="500" fill="#F5F0E8">Cash in hand</text><rect x="644" y="300" width="580" height="44" fill="#0F2318" stroke="#2A6A3E" stroke-width="0.5"/><text x="656" y="328" font-family="system-ui" font-size="11" font-weight="400" fill="#7AAE8A">ATM (urban) / tiendita (rural)</text><rect x="64" y="344" width="580" height="44" fill="#0F2318" stroke="#2A6A3E" stroke-width="0.5"/><text x="76" y="372" font-family="system-ui" font-size="11" font-weight="500" fill="#F5F0E8">No app for receiver</text><rect x="644" y="344" width="580" height="44" fill="#0F2318" stroke="#2A6A3E" stroke-width="0.5"/><text x="656" y="372" font-family="system-ui" font-size="11" font-weight="400" fill="#7AAE8A">Native WhatsApp only</text><text x="64" y="672" font-family="system-ui" font-size="11" font-style="italic" fill="#7AAE8A">Visual: hybrid-routing diagram · WhatsApp + Solscan</text><text x="1232" y="692" font-family="system-ui" font-size="11" fill="#7AAE8A" text-anchor="end">04 / 10</text>
</svg>