<?xml version="1.0" encoding="UTF-8"?>
<svg width="1280" height="720" viewBox="0 0 1280 720" xmlns="http://www.w3.org/2000/svg">
  <rect width="1280" height="720" fill="#0F2318"/>
  <rect x="0" y="0" width="6" height="720" fill="#C9A84C"/><g opacity="0.05">
    <defs><pattern id="grid-05 / 10" width="48" height="48" patternUnits="userSpaceOnUse">
      <path d="M 48 0 L 0 0 0 48" fill="none" stroke="#2A6A3E" stroke-width="1"/>
    </pattern></defs>
    <rect width="1280" height="720" fill="url(#grid-05 / 10)"/>
  </g><text x="64" y="62" font-family="system-ui" font-size="11" letter-spacing="3" fill="#C9A84C">OPPORTUNITY</text><text x="64" y="112" font-family="Georgia, serif" font-size="30" font-weight="700" fill="#F5F0E8">$60B corridor — beachhead: crypto</text><text x="64" y="148" font-family="Georgia, serif" font-size="30" font-weight="700" fill="#F5F0E8">senders + WhatsApp receivers.</text><rect x="64" y="212" width="386.6666666666667" height="44" fill="#1A4A2E" stroke="#2A6A3E" stroke-width="0.5"/><text x="76" y="240" font-family="system-ui" font-size="12" font-weight="600" fill="#F5F0E8">Layer</text><rect x="450.6666666666667" y="212" width="386.6666666666667" height="44" fill="#1A4A2E" stroke="#2A6A3E" stroke-width="0.5"/><text x="462.6666666666667" y="240" font-family="system-ui" font-size="12" font-weight="600" fill="#F5F0E8">Number</text><rect x="837.3333333333334" y="212" width="386.6666666666667" height="44" fill="#1A4A2E" stroke="#2A6A3E" stroke-width="0.5"/><text x="849.3333333333334" y="240" font-family="system-ui" font-size="12" font-weight="600" fill="#F5F0E8">Source</text><rect x="64" y="256" width="386.6666666666667" height="44" fill="#0F2318" stroke="#2A6A3E" stroke-width="0.5"/><text x="76" y="284" font-family="system-ui" font-size="11" font-weight="500" fill="#F5F0E8">TAM</text><rect x="450.6666666666667" y="256" width="386.6666666666667" height="44" fill="#0F2318" stroke="#2A6A3E" stroke-width="0.5"/><text x="462.6666666666667" y="284" font-family="system-ui" font-size="11" font-weight="400" fill="#7AAE8A">US→MX ~$60B/yr</text><rect x="837.3333333333334" y="256" width="386.6666666666667" height="44" fill="#0F2318" stroke="#2A6A3E" stroke-width="0.5"/><text x="849.3333333333334" y="284" font-family="system-ui" font-size="11" font-weight="400" fill="#7AAE8A">World Bank</text><rect x="64" y="300" width="386.6666666666667" height="44" fill="#0F2318" stroke="#2A6A3E" stroke-width="0.5"/><text x="76" y="328" font-family="system-ui" font-size="11" font-weight="500" fill="#F5F0E8">SAM</text><rect x="450.6666666666667" y="300" width="386.6666666666667" height="44" fill="#0F2318" stroke="#2A6A3E" stroke-width="0.5"/><text x="462.6666666666667" y="328" font-family="system-ui" font-size="11" font-weight="400" fill="#7AAE8A">Senders $50–500/mo</text><rect x="837.3333333333334" y="300" width="386.6666666666667" height="44" fill="#0F2318" stroke="#2A6A3E" stroke-width="0.5"/><text x="849.3333333333334" y="328" font-family="system-ui" font-size="11" font-weight="400" fill="#7AAE8A">Bridge interviews</text><rect x="64" y="344" width="386.6666666666667" height="44" fill="#0F2318" stroke="#2A6A3E" stroke-width="0.5"/><text x="76" y="372" font-family="system-ui" font-size="11" font-weight="500" fill="#F5F0E8">Beachhead</text><rect x="450.6666666666667" y="344" width="386.6666666666667" height="44" fill="#0F2318" stroke="#2A6A3E" stroke-width="0.5"/><text x="462.6666666666667" y="372" font-family="system-ui" font-size="11" font-weight="400" fill="#7AAE8A">10 users → merchant + ATM</text><rect x="837.3333333333334" y="344" width="386.6666666666667" height="44" fill="#0F2318" stroke="#2A6A3E" stroke-width="0.5"/><text x="849.3333333333334" y="372" font-family="system-ui" font-size="11" font-weight="400" fill="#7AAE8A">Q3 2026</text><text x="1232" y="692" font-family="system-ui" font-size="11" fill="#7AAE8A" text-anchor="end">05 / 10</text>
</svg>