<?xml version="1.0" encoding="UTF-8"?>
<svg width="1280" height="720" viewBox="0 0 1280 720" xmlns="http://www.w3.org/2000/svg">
  <rect width="1280" height="720" fill="#0F2318"/>
  <rect x="0" y="0" width="6" height="720" fill="#C9A84C"/><g opacity="0.05">
    <defs><pattern id="grid-10 / 12" width="48" height="48" patternUnits="userSpaceOnUse">
      <path d="M 48 0 L 0 0 0 48" fill="none" stroke="#2A6A3E" stroke-width="1"/>
    </pattern></defs>
    <rect width="1280" height="720" fill="url(#grid-10 / 12)"/>
  </g><text x="64" y="62" font-family="system-ui" font-size="11" letter-spacing="3" fill="#C9A84C">BUSINESS MODEL</text><text x="64" y="112" font-family="Georgia, serif" font-size="30" font-weight="700" fill="#F5F0E8">2.25% all-in · 0.25% protocol</text><text x="64" y="148" font-family="Georgia, serif" font-size="30" font-weight="700" fill="#F5F0E8">on-chain.</text><rect x="64" y="212" width="580" height="44" fill="#1A4A2E" stroke="#2A6A3E" stroke-width="0.5"/><text x="76" y="240" font-family="system-ui" font-size="12" font-weight="600" fill="#F5F0E8">Layer</text><rect x="644" y="212" width="580" height="44" fill="#1A4A2E" stroke="#2A6A3E" stroke-width="0.5"/><text x="656" y="240" font-family="system-ui" font-size="12" font-weight="600" fill="#F5F0E8">Rate / mechanism</text><rect x="64" y="256" width="580" height="44" fill="#0F2318" stroke="#2A6A3E" stroke-width="0.5"/><text x="76" y="284" font-family="system-ui" font-size="11" font-weight="500" fill="#F5F0E8">All-in (pilot)</text><rect x="644" y="256" width="580" height="44" fill="#0F2318" stroke="#2A6A3E" stroke-width="0.5"/><text x="656" y="284" font-family="system-ui" font-size="11" font-weight="400" fill="#7AAE8A">2.25% · ~65% below TradFi</text><rect x="64" y="300" width="580" height="44" fill="#0F2318" stroke="#2A6A3E" stroke-width="0.5"/><text x="76" y="328" font-family="system-ui" font-size="11" font-weight="500" fill="#F5F0E8">Protocol (TIA)</text><rect x="644" y="300" width="580" height="44" fill="#0F2318" stroke="#2A6A3E" stroke-width="0.5"/><text x="656" y="328" font-family="system-ui" font-size="11" font-weight="400" fill="#7AAE8A">0.25% on-chain · Solscan</text><rect x="64" y="344" width="580" height="44" fill="#0F2318" stroke="#2A6A3E" stroke-width="0.5"/><text x="76" y="372" font-family="system-ui" font-size="11" font-weight="500" fill="#F5F0E8">Partner rails</text><rect x="644" y="344" width="580" height="44" fill="#0F2318" stroke="#2A6A3E" stroke-width="0.5"/><text x="656" y="372" font-family="system-ui" font-size="11" font-weight="400" fill="#7AAE8A">~2.0% on-ramp + last-mile</text><rect x="64" y="388" width="580" height="44" fill="#0F2318" stroke="#2A6A3E" stroke-width="0.5"/><text x="76" y="416" font-family="system-ui" font-size="11" font-weight="500" fill="#F5F0E8">TIA revenue scale</text><rect x="644" y="388" width="580" height="44" fill="#0F2318" stroke="#2A6A3E" stroke-width="0.5"/><text x="656" y="416" font-family="system-ui" font-size="11" font-weight="400" fill="#7AAE8A">0.25% → 0.35% + ATM rev-share</text><text x="64" y="672" font-family="system-ui" font-size="11" font-style="italic" fill="#7AAE8A">$200: TradFi ~$14 vs TIA $4.50 all-in · treasury $0.50</text><text x="1232" y="692" font-family="system-ui" font-size="11" fill="#7AAE8A" text-anchor="end">10 / 12</text>
</svg>