<?xml version="1.0" encoding="UTF-8"?>
<svg width="1280" height="720" viewBox="0 0 1280 720" xmlns="http://www.w3.org/2000/svg">
  <rect width="1280" height="720" fill="#0F2318"/>
  <rect x="0" y="0" width="6" height="720" fill="#C9A84C"/><g opacity="0.05">
    <defs><pattern id="grid-11 / 12" width="48" height="48" patternUnits="userSpaceOnUse">
      <path d="M 48 0 L 0 0 0 48" fill="none" stroke="#2A6A3E" stroke-width="1"/>
    </pattern></defs>
    <rect width="1280" height="720" fill="url(#grid-11 / 12)"/>
  </g><text x="64" y="62" font-family="system-ui" font-size="11" letter-spacing="3" fill="#C9A84C">TEAM</text><text x="64" y="112" font-family="Georgia, serif" font-size="30" font-weight="700" fill="#F5F0E8">At pre-seed, team is the product.</text><rect x="64" y="176" width="386.6666666666667" height="44" fill="#1A4A2E" stroke="#2A6A3E" stroke-width="0.5"/><text x="76" y="204" font-family="system-ui" font-size="12" font-weight="600" fill="#F5F0E8">Name</text><rect x="450.6666666666667" y="176" width="386.6666666666667" height="44" fill="#1A4A2E" stroke="#2A6A3E" stroke-width="0.5"/><text x="462.6666666666667" y="204" font-family="system-ui" font-size="12" font-weight="600" fill="#F5F0E8">Role</text><rect x="837.3333333333334" y="176" width="386.6666666666667" height="44" fill="#1A4A2E" stroke="#2A6A3E" stroke-width="0.5"/><text x="849.3333333333334" y="204" font-family="system-ui" font-size="12" font-weight="600" fill="#F5F0E8">Proof line</text><rect x="64" y="220" width="386.6666666666667" height="44" fill="#0F2318" stroke="#2A6A3E" stroke-width="0.5"/><text x="76" y="248" font-family="system-ui" font-size="11" font-weight="500" fill="#F5F0E8">[Founder]</text><rect x="450.6666666666667" y="220" width="386.6666666666667" height="44" fill="#0F2318" stroke="#2A6A3E" stroke-width="0.5"/><text x="462.6666666666667" y="248" font-family="system-ui" font-size="11" font-weight="400" fill="#7AAE8A">CEO / Product</text><rect x="837.3333333333334" y="220" width="386.6666666666667" height="44" fill="#0F2318" stroke="#2A6A3E" stroke-width="0.5"/><text x="849.3333333333334" y="248" font-family="system-ui" font-size="11" font-weight="400" fill="#7AAE8A">Built E2E devnet + TIA agent</text><rect x="64" y="264" width="386.6666666666667" height="44" fill="#0F2318" stroke="#2A6A3E" stroke-width="0.5"/><text x="76" y="292" font-family="system-ui" font-size="11" font-weight="500" fill="#F5F0E8">[Co-founder]</text><rect x="450.6666666666667" y="264" width="386.6666666666667" height="44" fill="#0F2318" stroke="#2A6A3E" stroke-width="0.5"/><text x="462.6666666666667" y="292" font-family="system-ui" font-size="11" font-weight="400" fill="#7AAE8A">[if applicable]</text><rect x="837.3333333333334" y="264" width="386.6666666666667" height="44" fill="#0F2318" stroke="#2A6A3E" stroke-width="0.5"/><text x="849.3333333333334" y="292" font-family="system-ui" font-size="11" font-weight="400" fill="#7AAE8A">Anchor + Solana Actions</text><rect x="64" y="308" width="386.6666666666667" height="44" fill="#0F2318" stroke="#2A6A3E" stroke-width="0.5"/><text x="76" y="336" font-family="system-ui" font-size="11" font-weight="500" fill="#F5F0E8">Mentors</text><rect x="450.6666666666667" y="308" width="386.6666666666667" height="44" fill="#0F2318" stroke="#2A6A3E" stroke-width="0.5"/><text x="462.6666666666667" y="336" font-family="system-ui" font-size="11" font-weight="400" fill="#7AAE8A">Bridge cohort</text><rect x="837.3333333333334" y="308" width="386.6666666666667" height="44" fill="#0F2318" stroke="#2A6A3E" stroke-width="0.5"/><text x="849.3333333333334" y="336" font-family="system-ui" font-size="11" font-weight="400" fill="#7AAE8A">Leopold, Yarden, Sylvain</text><rect x="64" y="620" width="96" height="32" fill="#1A4A2E" stroke="#2A6A3E" stroke-width="1"/><rect x="64" y="620" width="4" height="32" fill="#C9A84C"/><text x="78" y="642" font-family="system-ui" font-size="12" fill="#F5F0E8">Dev3pack</text><rect x="172" y="620" width="132" height="32" fill="#1A4A2E" stroke="#2A6A3E" stroke-width="1"/><rect x="172" y="620" width="4" height="32" fill="#C9A84C"/><text x="186" y="642" font-family="system-ui" font-size="12" fill="#F5F0E8">Hackathon MX</text><rect x="316" y="620" width="78" height="32" fill="#1A4A2E" stroke="#2A6A3E" stroke-width="1"/><rect x="316" y="620" width="4" height="32" fill="#C9A84C"/><text x="330" y="642" font-family="system-ui" font-size="12" fill="#F5F0E8">Solana</text><text x="1232" y="692" font-family="system-ui" font-size="11" fill="#7AAE8A" text-anchor="end">11 / 12</text>
</svg>