<?xml version="1.0" encoding="UTF-8"?>
<svg width="1280" height="720" viewBox="0 0 1280 720" xmlns="http://www.w3.org/2000/svg">
  <rect width="1280" height="720" fill="#0F2318"/>
  <rect x="0" y="0" width="6" height="720" fill="#C9A84C"/><g opacity="0.05">
    <defs><pattern id="grid-12 / 12" width="48" height="48" patternUnits="userSpaceOnUse">
      <path d="M 48 0 L 0 0 0 48" fill="none" stroke="#2A6A3E" stroke-width="1"/>
    </pattern></defs>
    <rect width="1280" height="720" fill="url(#grid-12 / 12)"/>
  </g><text x="64" y="62" font-family="system-ui" font-size="11" letter-spacing="3" fill="#C9A84C">ASK</text><text x="64" y="112" font-family="Georgia, serif" font-size="30" font-weight="700" fill="#F5F0E8">The ask — readable without context.</text><rect x="64" y="176" width="580" height="44" fill="#1A4A2E" stroke="#2A6A3E" stroke-width="0.5"/><text x="76" y="204" font-family="system-ui" font-size="12" font-weight="600" fill="#F5F0E8">Field</text><rect x="644" y="176" width="580" height="44" fill="#1A4A2E" stroke="#2A6A3E" stroke-width="0.5"/><text x="656" y="204" font-family="system-ui" font-size="12" font-weight="600" fill="#F5F0E8">Draft</text><rect x="64" y="220" width="580" height="44" fill="#0F2318" stroke="#2A6A3E" stroke-width="0.5"/><text x="76" y="248" font-family="system-ui" font-size="11" font-weight="500" fill="#F5F0E8">Amount</text><rect x="644" y="220" width="580" height="44" fill="#0F2318" stroke="#2A6A3E" stroke-width="0.5"/><text x="656" y="248" font-family="system-ui" font-size="11" font-weight="400" fill="#7AAE8A">$X pre-seed</text><rect x="64" y="264" width="580" height="44" fill="#0F2318" stroke="#2A6A3E" stroke-width="0.5"/><text x="76" y="292" font-family="system-ui" font-size="11" font-weight="500" fill="#F5F0E8">Instrument</text><rect x="644" y="264" width="580" height="44" fill="#0F2318" stroke="#2A6A3E" stroke-width="0.5"/><text x="656" y="292" font-family="system-ui" font-size="11" font-weight="400" fill="#7AAE8A">SAFE / equity</text><rect x="64" y="308" width="580" height="44" fill="#0F2318" stroke="#2A6A3E" stroke-width="0.5"/><text x="76" y="336" font-family="system-ui" font-size="11" font-weight="500" fill="#F5F0E8">Valuation</text><rect x="644" y="308" width="580" height="44" fill="#0F2318" stroke="#2A6A3E" stroke-width="0.5"/><text x="656" y="336" font-family="system-ui" font-size="11" font-weight="400" fill="#7AAE8A">$X cap</text><rect x="64" y="352" width="580" height="44" fill="#0F2318" stroke="#2A6A3E" stroke-width="0.5"/><text x="76" y="380" font-family="system-ui" font-size="11" font-weight="500" fill="#F5F0E8">Milestones</text><rect x="644" y="352" width="580" height="44" fill="#0F2318" stroke="#2A6A3E" stroke-width="0.5"/><text x="656" y="380" font-family="system-ui" font-size="11" font-weight="400" fill="#7AAE8A">30-day validation · mainnet-beta · hybrid CDMX</text><rect x="64" y="396" width="580" height="44" fill="#0F2318" stroke="#2A6A3E" stroke-width="0.5"/><text x="76" y="424" font-family="system-ui" font-size="11" font-weight="500" fill="#F5F0E8">Contact</text><rect x="644" y="396" width="580" height="44" fill="#0F2318" stroke="#2A6A3E" stroke-width="0.5"/><text x="656" y="424" font-family="system-ui" font-size="11" font-weight="400" fill="#7AAE8A">founder@ / @remesatia</text><text x="64" y="672" font-family="system-ui" font-size="11" font-style="italic" fill="#7AAE8A">Use of funds: 40% eng · 30% ops · 20% legal · 10% GTM</text><text x="1232" y="692" font-family="system-ui" font-size="11" fill="#7AAE8A" text-anchor="end">12 / 12</text>
</svg>